<svg xmlns="http://www.w3.org/2000/svg" height="24" viewBox="2 2 20 20" width="24" fill="white">
<path d="M 9.8906998,16.233103 5.1313273,11.47373 a 1.3461538,1.5192307 45 0 1 0.122383,-2.0261336 l 1.0742595,-1.074259 -4.0522666,0.244769 6.4455506,-6.445549 -0.244768,4.052264 1.074259,-1.074259 a 1.3461538,1.5192307 45 0 1 2.0261302,-0.122383 l 4.759374,4.7593716 a 1.3461538,1.5192307 45 0 1 -0.122384,2.026135 l -4.297034,4.297033 A 1.3461538,1.5192307 45 0 1 9.8906998,16.233103 Z M 10.964957,15.158844 15.261991,10.861811 10.502618,6.1024374 6.2055848,10.399472 Z"/>
<path d="m 14.224293,15.714388 c 3.299831,3.005202 5.165738,4.544311 5.165738,4.544311 l -3.240906,1.355289 -3.633673,-5.8996 z"/>
<path d="m 15.993848,12.784194 2.558715,1.345379 1.867746,2.763273 2.180246,-2.121321 -4.83894,-2.694438 z"/>
<path d="m 14.340359,14.30196 3.720169,3.629993 1.885618,-0.942809 -4.014797,-2.687184 z"/>
</svg>