<svg xmlns="http://www.w3.org/2000/svg" height="24" viewBox="2 2 20 20" width="24" fill="white">
<path d="m 7.1442743,11.663766 q -0.9582938,0 -1.8114091,-0.368125 Q 4.47975,10.927516 3.8428352,10.290601 3.2059204,9.6536865 2.8377954,8.8005713 2.4696703,7.947456 2.4696703,6.9891622 q 0,-0.9699803 0.3681251,-1.8172523 0.368125,-0.847272 1.0050398,-1.4841868 0.6369148,-0.6369148 1.49003,-1.0050398 0.8531153,-0.3681251 1.8114091,-0.3681251 0.9699803,0 1.8172523,0.3681251 0.847272,0.368125 1.4841864,1.0050398 0.636915,0.6369148 1.00504,1.4841868 0.368125,0.847272 0.368125,1.8172523 0,0.9582938 -0.368125,1.8114091 -0.368125,0.8531152 -1.00504,1.4900297 -0.6369144,0.636915 -1.4841864,1.00504 -0.847272,0.368125 -1.8172523,0.368125 z m 0,-0.958294 Q 7.4481236,10.284758 7.6701673,9.8289841 7.8922109,9.3732102 8.0324491,8.8590038 H 6.2560995 Q 6.3963377,9.3732102 6.6183814,9.8289841 6.840425,10.284758 7.1442743,10.705472 Z M 5.9288773,10.518488 Q 5.7185201,10.132833 5.5607522,9.7179623 5.4029843,9.3030912 5.2978057,8.8590038 H 3.9187975 q 0.3389088,0.5843255 0.847272,1.0167264 0.5083632,0.4324008 1.1628078,0.6427578 z m 2.430794,0 Q 9.0141159,10.308131 9.5224791,9.8757302 10.030842,9.4433293 10.369751,8.8590038 H 8.9907429 Q 8.8855643,9.3030912 8.7277964,9.7179623 8.5700285,10.132833 8.3596713,10.518488 Z M 3.5214562,7.924083 h 1.5893654 q -0.03506,-0.2337302 -0.052589,-0.4616171 -0.01753,-0.227887 -0.01753,-0.4733037 0,-0.2454167 0.01753,-0.4733037 0.01753,-0.2278869 0.052589,-0.4616171 H 3.5214562 q -0.058432,0.2337302 -0.087649,0.4616171 -0.029216,0.227887 -0.029216,0.4733037 0,0.2454167 0.029216,0.4733037 0.029216,0.2278869 0.087649,0.4616171 z m 2.5242862,0 h 2.1970638 q 0.03506,-0.2337302 0.052589,-0.4616171 0.01753,-0.227887 0.01753,-0.4733037 0,-0.2454167 -0.01753,-0.4733037 -0.01753,-0.2278869 -0.052589,-0.4616171 H 6.0457424 q -0.03506,0.2337302 -0.052589,0.4616171 -0.01753,0.227887 -0.01753,0.4733037 0,0.2454167 0.01753,0.4733037 0.01753,0.2278869 0.052589,0.4616171 z m 3.1319846,0 h 1.589365 q 0.05843,-0.2337302 0.08765,-0.4616171 0.02922,-0.227887 0.02922,-0.4733037 0,-0.2454167 -0.02922,-0.4733037 -0.02922,-0.2278869 -0.08765,-0.4616171 H 9.177727 q 0.03506,0.2337302 0.052589,0.4616171 0.01753,0.227887 0.01753,0.4733037 0,0.2454167 -0.01753,0.4733037 Q 9.212786,7.6903528 9.177727,7.924083 Z M 8.9907429,5.1193206 H 10.369751 Q 10.030842,4.5349951 9.5224791,4.1025942 9.0141159,3.6701934 8.3596713,3.4598362 8.5700285,3.845491 8.7277964,4.2603621 8.8855643,4.6752332 8.9907429,5.1193206 Z m -2.7346434,0 H 8.0324491 Q 7.8922109,4.6051142 7.6701673,4.1493403 7.4481236,3.6935664 7.1442743,3.272852 6.840425,3.6935664 6.6183814,4.1493403 6.3963377,4.6051142 6.2560995,5.1193206 Z m -2.337302,0 H 5.2978057 Q 5.4029843,4.6752332 5.5607522,4.2603621 5.7185201,3.845491 5.9288773,3.4598362 5.2744327,3.6701934 4.7660695,4.1025942 4.2577063,4.5349951 3.9187975,5.1193206 Z"/>
<path d="m 15.71996,21.990604 -4.663443,-4.853407 a 1.3461538,1.5192307 46.143522 0 1 0.162796,-2.023287 l 1.095483,-1.052606 -4.0563428,0.163849 6.5728988,-6.3156334 -0.32559,4.0465734 1.095484,-1.052605 a 1.3461538,1.5192307 46.143522 0 1 2.028171,-0.08193 l 4.663442,4.85341 a 1.3461538,1.5192307 46.143522 0 1 -0.162794,2.023289 L 17.748132,21.90868 A 1.3461538,1.5192307 46.143522 0 1 15.71996,21.9906 Z m 1.095484,-1.052606 4.381933,-4.210422 -4.663442,-4.853407 -4.381934,4.210422 z"/>
</svg>